<svg width="11" height="19" viewBox="0 0 11 19" fill="none" xmlns="http://www.w3.org/2000/svg">
<g clip-path="url(#clip0_3_1889)">
<path d="M9.60706 15.8586C9.84174 16.1158 9.97212 16.4541 9.95908 16.806C9.95908 17.1579 9.8287 17.4827 9.58098 17.7398C9.3463 17.9835 9.02036 18.1323 8.68137 18.1323C8.34239 18.1323 8.01645 18.0105 7.76873 17.7669L0.389327 10.1068C0.271987 9.98496 0.180722 9.83608 0.115533 9.67368C0.0503439 9.51127 0.0112305 9.33533 0.0112305 9.15939C0.0112305 8.98345 0.0503439 8.80751 0.115533 8.63157C0.180722 8.46917 0.271987 8.32029 0.389327 8.19849L7.76873 0.538339C7.88607 0.416535 8.02948 0.308264 8.18594 0.240595C8.35543 0.172926 8.52492 0.132324 8.69441 0.132324C8.8639 0.132324 9.04643 0.159392 9.20289 0.227061C9.35934 0.29473 9.50276 0.403001 9.63313 0.524805C9.75047 0.64661 9.84174 0.809016 9.90693 0.971422C9.98516 1.13383 10.0112 1.30977 10.0112 1.49924C10.0112 1.67518 9.97212 1.85112 9.90693 2.01353C9.84174 2.17593 9.73744 2.32481 9.60706 2.46014L3.15334 9.15939L4.3789 10.418L9.60706 15.8586Z" fill="#181725"/>
</g>
<defs>
<clipPath id="clip0_3_1889">
<rect width="10" height="18" fill="white" transform="translate(0.0112305 0.132324)"/>
</clipPath>
</defs>
</svg>
