<svg width="10" height="15" viewBox="0 0 10 15" fill="none" xmlns="http://www.w3.org/2000/svg">
<g clip-path="url(#clip0_1_1292)">
<path d="M1.191 1.91564C0.993868 1.71564 0.88435 1.45248 0.895302 1.1788C0.895302 0.905111 1.00482 0.652478 1.2129 0.452479C1.41003 0.263005 1.68383 0.147215 1.96857 0.147215C2.25332 0.147215 2.52711 0.241953 2.7352 0.431426L8.93389 6.38932C9.03246 6.48406 9.10912 6.59985 9.16388 6.72616C9.21864 6.85248 9.2515 6.98932 9.2515 7.12616C9.2515 7.26301 9.21864 7.39985 9.16388 7.53669C9.10912 7.66301 9.03246 7.7788 8.93389 7.87353L2.7352 13.8314C2.63663 13.9262 2.51616 14.0104 2.38474 14.063C2.24237 14.1156 2.09999 14.1472 1.95762 14.1472C1.81525 14.1472 1.66192 14.1262 1.5305 14.0735C1.39908 14.0209 1.27861 13.9367 1.1691 13.842C1.07053 13.7472 0.993867 13.6209 0.939108 13.4946C0.873397 13.3683 0.851494 13.2314 0.851494 13.0841C0.851494 12.9472 0.884349 12.8104 0.939108 12.6841C0.993867 12.5577 1.08148 12.442 1.191 12.3367L6.61212 7.12616L5.58266 6.14722L1.191 1.91564Z" fill="#181725"/>
</g>
<defs>
<clipPath id="clip0_1_1292">
<rect width="8.4" height="14" fill="white" transform="translate(9.2515 14.1472) rotate(-180)"/>
</clipPath>
</defs>
</svg>
