<svg width="268" height="70" viewBox="0 0 268 70" fill="none" xmlns="http://www.w3.org/2000/svg">
<path fill-rule="evenodd" clip-rule="evenodd" d="M37.5433 5.6422C37.8164 3.20276 36.0869 0.99998 33.6475 0.726908C31.208 0.435631 29.0052 2.18329 28.7322 4.62273C28.4045 7.40806 28.8596 10.7395 29.4422 14.162C31.0624 14.6536 32.628 15.3636 34.0844 16.201C35.65 12.5054 37.1792 8.84624 37.5433 5.6422ZM54.674 16.3466C53.7091 14.0892 51.0876 13.0697 48.8302 14.0346C45.8629 15.3271 42.7863 17.8576 39.6914 20.4609C40.8566 21.6078 41.9488 22.9003 42.8773 24.3021C46.3908 23.8652 49.7587 23.3372 52.362 22.2085C54.6194 21.2073 55.657 18.5858 54.674 16.3466ZM47.1918 4.44068C45.2257 2.9843 42.4404 3.38481 40.984 5.35092C38.763 8.33651 37.2702 12.7967 35.65 17.1476C36.1961 17.5117 36.7059 17.8758 37.1974 18.2581C37.5615 18.5494 37.9438 18.8589 38.3261 19.1683C42.0399 16.3648 45.8993 13.6341 48.1203 10.6485C49.5766 8.6824 49.1579 5.89707 47.1918 4.44068Z" fill="white"/>
<path d="M38.7449 40.0856C37.3795 41.5602 35.9231 42.9256 34.3757 44.2545C32.2093 46.1296 30.0066 47.9501 27.7674 49.6978C25.3643 48.2232 23.6349 47.4768 23.3436 47.8591C23.0887 48.205 24.09 49.4793 25.8923 51.1359C19.8483 55.6325 13.4584 59.6012 6.59521 62.8598C5.52113 63.3696 4.39243 63.7337 3.28194 64.1342C2.99066 64.2434 2.68118 64.2434 2.55375 64.2616C0.80609 64.4618 0.278152 63.9885 0.350971 62.3865C0.569428 57.3984 2.11683 52.7198 3.71886 48.0593C4.15577 46.785 4.61089 45.5107 5.08421 44.2363C7.50545 45.7109 9.2349 46.4755 9.52618 46.0932C9.83566 45.6745 8.37928 43.9997 5.93984 41.9061C7.6875 37.3913 9.63541 32.9494 11.9292 28.6895C16.5168 32.0938 20.5947 34.3329 21.0498 33.714C21.5049 33.095 18.137 29.7999 13.4948 26.3592L13.2946 26.2136C14.0956 24.8482 14.933 23.4829 15.825 22.1539C16.9355 20.4791 18.3009 18.9499 19.648 17.4571C21.4503 15.4728 23.7805 14.7992 26.3838 15.3818C34.7216 17.2386 40.5107 22.0265 43.2414 30.2369C43.7876 31.9117 43.2961 33.5501 42.4404 35.0611C41.8579 36.0806 41.2207 37.0455 40.5107 37.9557C36.1052 34.7334 32.2822 32.6581 31.8452 33.2407C31.4265 33.8232 34.4667 36.827 38.7449 40.0856Z" fill="white"/>
<path d="M92.4489 10.4026C86.678 10.4026 82.9278 12.7146 80.6522 17.1019H80.5248V14.3712C80.5248 12.4051 78.9228 10.8213 76.9567 10.8213C74.9906 10.8213 73.4067 12.4051 73.4067 14.3712V44.573C73.4067 46.5391 74.9906 48.1411 76.9567 48.1411H77.3026C79.2687 48.1411 80.8707 46.5391 80.8707 44.573V26.5866C80.8707 20.7065 84.2386 16.7925 89.8639 16.7925C95.3253 16.7925 97.9468 19.9601 97.9468 25.6218V44.573C97.9468 46.5391 99.5306 48.1411 101.497 48.1411H101.843C103.809 48.1411 105.393 46.5391 105.393 44.573V24.22C105.393 15.6274 100.696 10.4026 92.4489 10.4026Z" fill="white"/>
<path d="M128.422 10.3297C117.99 10.3297 111.182 17.9393 111.182 29.6086C111.182 41.296 117.917 48.578 128.731 48.578C135.43 48.578 140.965 45.6106 143.459 40.9866C144.387 39.2935 143.113 37.2 141.183 37.2H139.29C138.343 37.2 137.524 37.7461 137.032 38.5653C135.594 41.0412 132.572 42.534 128.877 42.534C122.76 42.534 118.7 38.2741 118.7 31.8114V31.3744H142.548C143.968 31.3744 145.134 30.2093 145.134 28.7894V28.753C145.134 17.4478 138.671 10.3297 128.422 10.3297ZM118.737 26.0768C119.155 20.3423 123.033 16.4101 128.403 16.4101C133.828 16.4101 137.506 20.2695 137.67 26.0768H118.737Z" fill="white"/>
<path d="M179.85 35.5979H177.866C176.792 35.5979 175.863 36.2715 175.463 37.2728C174.17 40.5679 171.221 42.3337 167.034 42.3337C161.045 42.3337 157.003 37.5094 157.003 29.4811C157.003 21.6349 160.99 16.6286 166.998 16.6286C171.33 16.6286 174.225 18.7767 175.408 21.8351C175.809 22.8546 176.737 23.5646 177.848 23.5646H179.832C181.561 23.5646 182.854 21.8715 182.29 20.2331C180.378 14.6078 174.917 10.3297 166.925 10.3297C156.384 10.3297 149.43 17.8665 149.43 29.4811C149.43 41.296 156.402 48.578 166.998 48.578C174.589 48.578 180.232 44.8642 182.308 38.984C182.89 37.3274 181.616 35.5979 179.85 35.5979Z" fill="white"/>
<path d="M202.206 42.2791C202.078 42.2609 201.932 42.2427 201.805 42.2427C199.347 41.9514 198.2 40.4222 198.2 37.5459V16.7014H202.406C204.044 16.7014 205.355 15.3724 205.355 13.7522C205.355 12.132 204.044 10.8212 202.406 10.8212H198.2V6.14261C198.2 5.12314 197.782 4.1947 197.108 3.52112C196.435 2.84754 195.524 2.42883 194.487 2.42883C192.448 2.42883 190.791 4.10367 190.791 6.14261V10.8212H188.57C186.95 10.8212 185.621 12.132 185.621 13.7522C185.621 15.3724 186.95 16.7014 188.57 16.7014H190.791V38.3105C190.791 45.5196 193.667 48.3777 201.131 48.3777C201.15 48.3777 201.168 48.3777 201.168 48.3777C202.023 48.3777 202.806 48.1228 203.462 47.6677C203.48 47.6677 203.498 47.6495 203.498 47.6495C204.263 47.1034 204.772 46.2113 204.772 45.2101C204.772 43.7173 203.662 42.4611 202.206 42.2791Z" fill="white"/>
<path d="M226.418 10.3297C220.592 10.3297 215.786 12.6963 213.329 16.3555C212.928 16.9745 212.728 17.648 212.728 18.3034C212.728 20.1239 214.184 21.8169 216.241 21.8169C217.443 21.8169 218.59 21.1798 219.154 20.1239C220.356 17.8665 222.923 16.4829 226.218 16.4829C231.206 16.4829 234.046 18.8313 234.046 23.0913V23.5464C234.046 24.9117 232.99 26.0404 231.624 26.1133L223.978 26.5502C214.767 27.1327 209.724 30.9193 209.724 37.4548C209.724 44.1178 214.876 48.5051 222.34 48.5051C227.419 48.5051 232.061 45.9747 234.119 41.915H234.282V44.5729C234.282 45.556 234.683 46.448 235.32 47.1034C235.975 47.7405 236.867 48.141 237.851 48.141C239.817 48.141 241.4 46.539 241.4 44.5729V22.5451C241.4 15.154 235.52 10.3297 226.418 10.3297ZM234.046 34.1234C234.046 39.0204 229.859 42.5704 224.324 42.5704C220.028 42.5704 217.243 40.5132 217.243 37.3092C217.243 34.0141 219.901 32.1208 224.98 31.8114L234.046 31.1924V34.1234Z" fill="white"/>
<path d="M265.158 10.439C260.752 10.439 257.33 12.9512 256.146 17.1019H256.019V14.3712C256.019 12.4051 254.417 10.8213 252.469 10.8213C250.503 10.8213 248.901 12.4051 248.901 14.3712V44.4091C248.901 45.4286 249.32 46.3752 249.993 47.0488C250.667 47.7224 251.595 48.1411 252.633 48.1411C254.69 48.1411 256.365 46.4662 256.365 44.4091V25.8766C256.365 20.6154 259.46 17.2111 264.375 17.2111C264.575 17.2111 264.794 17.2111 264.994 17.2293C266.523 17.284 267.761 16.0278 267.761 14.4986V13.0605C267.761 11.6223 266.596 10.439 265.158 10.439Z" fill="white"/>
<path d="M204.773 45.2101C204.773 46.2113 204.263 47.1034 203.498 47.6495C203.498 47.6495 203.48 47.6677 203.462 47.6677C202.988 47.9954 202.424 48.1774 201.805 48.1774C200.149 48.1774 198.82 46.8485 198.82 45.2101C198.82 43.5716 200.149 42.2427 201.805 42.2427C201.933 42.2427 202.078 42.2609 202.206 42.2791C203.662 42.4611 204.773 43.7173 204.773 45.2101Z" fill="white"/>
<path d="M77.0299 65.4589C76.314 65.4589 75.6892 65.2949 75.1556 64.9667C74.622 64.6386 74.2077 64.1796 73.9127 63.5896C73.6177 62.9996 73.4702 62.3103 73.4702 61.5214C73.4702 60.7293 73.6177 60.0366 73.9127 59.4433C74.2077 58.85 74.622 58.3893 75.1556 58.0612C75.6892 57.7331 76.314 57.569 77.0299 57.569C77.7458 57.569 78.3705 57.7331 78.9042 58.0612C79.4378 58.3893 79.8521 58.85 80.1471 59.4433C80.442 60.0366 80.5895 60.7293 80.5895 61.5214C80.5895 62.3103 80.442 62.9996 80.1471 63.5896C79.8521 64.1796 79.4378 64.6386 78.9042 64.9667C78.3705 65.2949 77.7458 65.4589 77.0299 65.4589ZM77.0348 64.2111C77.4989 64.2111 77.8833 64.0884 78.1883 63.8432C78.4932 63.5979 78.7186 63.2714 78.8644 62.8638C79.0135 62.4561 79.0881 62.007 79.0881 61.5165C79.0881 61.0292 79.0135 60.5818 78.8644 60.1741C78.7186 59.7631 78.4932 59.4334 78.1883 59.1848C77.8833 58.9362 77.4989 58.8119 77.0348 58.8119C76.5675 58.8119 76.1797 58.9362 75.8715 59.1848C75.5666 59.4334 75.3395 59.7631 75.1904 60.1741C75.0446 60.5818 74.9716 61.0292 74.9716 61.5165C74.9716 62.007 75.0446 62.4561 75.1904 62.8638C75.3395 63.2714 75.5666 63.5979 75.8715 63.8432C76.1797 64.0884 76.5675 64.2111 77.0348 64.2111ZM89.2353 60.7707V65.3048H87.7488V57.6684H89.1756V58.9113H89.2701C89.4458 58.507 89.7209 58.1822 90.0954 57.9369C90.4732 57.6916 90.9488 57.569 91.5222 57.569C92.0426 57.569 92.4983 57.6784 92.8894 57.8971C93.2805 58.1126 93.5838 58.4341 93.7992 58.8616C94.0147 59.2892 94.1224 59.8178 94.1224 60.4476V65.3048H92.6359V60.6265C92.6359 60.073 92.4917 59.6405 92.2033 59.329C91.915 59.0141 91.5189 58.8567 91.0151 58.8567C90.6704 58.8567 90.3639 58.9312 90.0954 59.0804C89.8302 59.2295 89.6198 59.4483 89.464 59.7366C89.3115 60.0217 89.2353 60.3664 89.2353 60.7707ZM103.102 55.123V65.3048H101.616V55.123H103.102ZM110.602 65.3048V57.6684H112.089V65.3048H110.602ZM111.353 56.4902C111.095 56.4902 110.872 56.404 110.687 56.2317C110.505 56.056 110.413 55.8472 110.413 55.6052C110.413 55.36 110.505 55.1512 110.687 54.9788C110.872 54.8032 111.095 54.7153 111.353 54.7153C111.612 54.7153 111.832 54.8032 112.014 54.9788C112.2 55.1512 112.293 55.36 112.293 55.6052C112.293 55.8472 112.2 56.056 112.014 56.2317C111.832 56.404 111.612 56.4902 111.353 56.4902ZM121.075 60.7707V65.3048H119.589V57.6684H121.015V58.9113H121.11C121.286 58.507 121.561 58.1822 121.935 57.9369C122.313 57.6916 122.789 57.569 123.362 57.569C123.882 57.569 124.338 57.6784 124.729 57.8971C125.12 58.1126 125.424 58.4341 125.639 58.8616C125.855 59.2892 125.962 59.8178 125.962 60.4476V65.3048H124.476V60.6265C124.476 60.073 124.332 59.6405 124.043 59.329C123.755 59.0141 123.359 58.8567 122.855 58.8567C122.51 58.8567 122.204 58.9312 121.935 59.0804C121.67 59.2295 121.46 59.4483 121.304 59.7366C121.151 60.0217 121.075 60.3664 121.075 60.7707ZM136.747 65.4589C135.995 65.4589 135.347 65.2982 134.803 64.9767C134.263 64.6519 133.845 64.1961 133.55 63.6095C133.259 63.0195 133.113 62.3285 133.113 61.5363C133.113 60.7541 133.259 60.0648 133.55 59.4682C133.845 58.8716 134.256 58.4059 134.783 58.0711C135.314 57.7364 135.933 57.569 136.643 57.569C137.073 57.569 137.491 57.6403 137.895 57.7828C138.3 57.9253 138.663 58.149 138.984 58.454C139.306 58.7589 139.559 59.155 139.745 59.6422C139.931 60.1261 140.023 60.7144 140.023 61.4071V61.9341H133.953V60.8204H138.567C138.567 60.4293 138.487 60.083 138.328 59.7814C138.169 59.4764 137.945 59.2362 137.657 59.0605C137.372 58.8848 137.037 58.797 136.653 58.797C136.235 58.797 135.87 58.8997 135.559 59.1052C135.251 59.3074 135.012 59.5726 134.843 59.9007C134.677 60.2255 134.594 60.5785 134.594 60.9596V61.8297C134.594 62.3401 134.684 62.7743 134.863 63.1322C135.045 63.4902 135.299 63.7636 135.623 63.9525C135.948 64.1381 136.328 64.2309 136.762 64.2309C137.044 64.2309 137.301 64.1912 137.533 64.1116C137.765 64.0288 137.965 63.9061 138.134 63.7437C138.303 63.5813 138.432 63.3808 138.522 63.1422L139.929 63.3957C139.816 63.81 139.614 64.1729 139.322 64.4845C139.034 64.7927 138.671 65.033 138.234 65.2054C137.799 65.3744 137.304 65.4589 136.747 65.4589ZM159.579 68.3275C158.973 68.3275 158.451 68.248 158.013 68.0889C157.579 67.9298 157.225 67.7193 156.949 67.4575C156.674 67.1957 156.469 66.909 156.333 66.5974L157.611 66.0704C157.7 66.2163 157.819 66.3704 157.969 66.5328C158.121 66.6985 158.327 66.8394 158.585 66.9554C158.847 67.0714 159.183 67.1294 159.594 67.1294C160.158 67.1294 160.623 66.9918 160.991 66.7167C161.359 66.445 161.543 66.0108 161.543 65.4142V63.9128H161.449C161.359 64.0752 161.23 64.2558 161.061 64.4547C160.895 64.6535 160.667 64.8259 160.375 64.9717C160.083 65.1175 159.704 65.1905 159.236 65.1905C158.633 65.1905 158.09 65.0496 157.606 64.7679C157.125 64.4828 156.744 64.0636 156.462 63.5101C156.184 62.9532 156.045 62.2688 156.045 61.4568C156.045 60.6448 156.182 59.9487 156.457 59.3687C156.736 58.7887 157.117 58.3446 157.601 58.0363C158.085 57.7248 158.633 57.569 159.246 57.569C159.72 57.569 160.103 57.6486 160.395 57.8077C160.686 57.9634 160.913 58.1457 161.076 58.3545C161.242 58.5633 161.369 58.7473 161.459 58.9064H161.568V57.6684H163.025V65.4738C163.025 66.1301 162.872 66.6687 162.567 67.0896C162.262 67.5105 161.85 67.8221 161.329 68.0243C160.812 68.2264 160.229 68.3275 159.579 68.3275ZM159.564 63.9575C159.992 63.9575 160.353 63.8581 160.648 63.6592C160.947 63.457 161.172 63.1687 161.324 62.7942C161.48 62.4163 161.558 61.9639 161.558 61.4369C161.558 60.9232 161.482 60.4708 161.329 60.0797C161.177 59.6886 160.953 59.3836 160.658 59.1649C160.363 58.9428 159.999 58.8318 159.564 58.8318C159.117 58.8318 158.744 58.9478 158.446 59.1798C158.148 59.4085 157.922 59.7201 157.77 60.1145C157.621 60.5089 157.546 60.9497 157.546 61.4369C157.546 61.9374 157.622 62.3765 157.775 62.7544C157.927 63.1322 158.153 63.4272 158.451 63.6393C158.752 63.8514 159.124 63.9575 159.564 63.9575ZM170.518 65.3048V57.6684H171.955V58.8815H172.035C172.174 58.4705 172.419 58.1474 172.77 57.9121C173.125 57.6734 173.526 57.5541 173.974 57.5541C174.066 57.5541 174.176 57.5574 174.302 57.564C174.431 57.5707 174.532 57.579 174.605 57.5889V59.0108C174.545 58.9942 174.439 58.976 174.287 58.9561C174.134 58.9329 173.982 58.9213 173.829 58.9213C173.478 58.9213 173.165 58.9959 172.89 59.145C172.618 59.2908 172.403 59.4947 172.243 59.7565C172.084 60.015 172.005 60.31 172.005 60.6415V65.3048H170.518ZM184.335 65.4589C183.619 65.4589 182.994 65.2949 182.46 64.9667C181.927 64.6386 181.512 64.1796 181.217 63.5896C180.922 62.9996 180.775 62.3103 180.775 61.5214C180.775 60.7293 180.922 60.0366 181.217 59.4433C181.512 58.85 181.927 58.3893 182.46 58.0612C182.994 57.7331 183.619 57.569 184.335 57.569C185.05 57.569 185.675 57.7331 186.209 58.0612C186.742 58.3893 187.157 58.85 187.452 59.4433C187.747 60.0366 187.894 60.7293 187.894 61.5214C187.894 62.3103 187.747 62.9996 187.452 63.5896C187.157 64.1796 186.742 64.6386 186.209 64.9667C185.675 65.2949 185.05 65.4589 184.335 65.4589ZM184.34 64.2111C184.804 64.2111 185.188 64.0884 185.493 63.8432C185.798 63.5979 186.023 63.2714 186.169 62.8638C186.318 62.4561 186.393 62.007 186.393 61.5165C186.393 61.0292 186.318 60.5818 186.169 60.1741C186.023 59.7631 185.798 59.4334 185.493 59.1848C185.188 58.9362 184.804 58.8119 184.34 58.8119C183.872 58.8119 183.484 58.9362 183.176 59.1848C182.871 59.4334 182.644 59.7631 182.495 60.1741C182.349 60.5818 182.276 61.0292 182.276 61.5165C182.276 62.007 182.349 62.4561 182.495 62.8638C182.644 63.2714 182.871 63.5979 183.176 63.8432C183.484 64.0884 183.872 64.2111 184.34 64.2111ZM198.27 65.4589C197.531 65.4589 196.895 65.2916 196.361 64.9568C195.831 64.6187 195.423 64.1531 195.138 63.5598C194.853 62.9665 194.71 62.2871 194.71 61.5214C194.71 60.7459 194.856 60.0614 195.148 59.4682C195.44 58.8716 195.851 58.4059 196.381 58.0711C196.911 57.7364 197.536 57.569 198.255 57.569C198.835 57.569 199.352 57.6767 199.806 57.8922C200.26 58.1043 200.627 58.4026 200.905 58.7871C201.187 59.1715 201.354 59.6206 201.407 60.1344H199.96C199.881 59.7764 199.699 59.4682 199.414 59.2096C199.132 58.9511 198.754 58.8219 198.28 58.8219C197.866 58.8219 197.503 58.9312 197.191 59.15C196.883 59.3654 196.643 59.6737 196.47 60.0747C196.298 60.4724 196.212 60.9431 196.212 61.4866C196.212 62.0434 196.296 62.524 196.465 62.9284C196.634 63.3327 196.873 63.646 197.181 63.868C197.493 64.0901 197.859 64.2011 198.28 64.2011C198.562 64.2011 198.817 64.1497 199.046 64.047C199.278 63.9409 199.472 63.7901 199.627 63.5946C199.786 63.399 199.897 63.1637 199.96 62.8886H201.407C201.354 63.3825 201.193 63.8233 200.925 64.2111C200.656 64.5988 200.297 64.9038 199.846 65.1258C199.399 65.3479 198.873 65.4589 198.27 65.4589ZM211.788 65.4589C211.036 65.4589 210.388 65.2982 209.844 64.9767C209.304 64.6519 208.886 64.1961 208.591 63.6095C208.3 63.0195 208.154 62.3285 208.154 61.5363C208.154 60.7541 208.3 60.0648 208.591 59.4682C208.886 58.8716 209.297 58.4059 209.824 58.0711C210.355 57.7364 210.974 57.569 211.684 57.569C212.115 57.569 212.532 57.6403 212.936 57.7828C213.341 57.9253 213.704 58.149 214.025 58.454C214.347 58.7589 214.6 59.155 214.786 59.6422C214.972 60.1261 215.064 60.7144 215.064 61.4071V61.9341H208.994V60.8204H213.608C213.608 60.4293 213.528 60.083 213.369 59.7814C213.21 59.4764 212.986 59.2362 212.698 59.0605C212.413 58.8848 212.078 58.797 211.694 58.797C211.276 58.797 210.911 58.8997 210.6 59.1052C210.292 59.3074 210.053 59.5726 209.884 59.9007C209.718 60.2255 209.635 60.5785 209.635 60.9596V61.8297C209.635 62.3401 209.725 62.7743 209.904 63.1322C210.086 63.4902 210.34 63.7636 210.664 63.9525C210.989 64.1381 211.369 64.2309 211.803 64.2309C212.085 64.2309 212.342 64.1912 212.574 64.1116C212.806 64.0288 213.006 63.9061 213.175 63.7437C213.344 63.5813 213.473 63.3808 213.563 63.1422L214.97 63.3957C214.857 63.81 214.655 64.1729 214.363 64.4845C214.075 64.7927 213.712 65.033 213.275 65.2054C212.84 65.3744 212.345 65.4589 211.788 65.4589ZM222.214 65.3048V57.6684H223.65V58.8815H223.73C223.869 58.4705 224.114 58.1474 224.466 57.9121C224.82 57.6734 225.221 57.5541 225.669 57.5541C225.762 57.5541 225.871 57.5574 225.997 57.564C226.126 57.5707 226.227 57.579 226.3 57.5889V59.0108C226.241 58.9942 226.135 58.976 225.982 58.9561C225.83 58.9329 225.677 58.9213 225.525 58.9213C225.173 58.9213 224.86 58.9959 224.585 59.145C224.313 59.2908 224.098 59.4947 223.939 59.7565C223.78 60.015 223.7 60.31 223.7 60.6415V65.3048H222.214ZM233.087 65.3048V57.6684H234.573V65.3048H233.087ZM233.837 56.4902C233.579 56.4902 233.357 56.404 233.171 56.2317C232.989 56.056 232.898 55.8472 232.898 55.6052C232.898 55.36 232.989 55.1512 233.171 54.9788C233.357 54.8032 233.579 54.7153 233.837 54.7153C234.096 54.7153 234.316 54.8032 234.499 54.9788C234.684 55.1512 234.777 55.36 234.777 55.6052C234.777 55.8472 234.684 56.056 234.499 56.2317C234.316 56.404 234.096 56.4902 233.837 56.4902ZM245.364 65.4589C244.612 65.4589 243.964 65.2982 243.42 64.9767C242.88 64.6519 242.462 64.1961 242.167 63.6095C241.876 63.0195 241.73 62.3285 241.73 61.5363C241.73 60.7541 241.876 60.0648 242.167 59.4682C242.462 58.8716 242.873 58.4059 243.4 58.0711C243.931 57.7364 244.551 57.569 245.26 57.569C245.691 57.569 246.108 57.6403 246.513 57.7828C246.917 57.9253 247.28 58.149 247.601 58.454C247.923 58.7589 248.176 59.155 248.362 59.6422C248.548 60.1261 248.64 60.7144 248.64 61.4071V61.9341H242.57V60.8204H247.184C247.184 60.4293 247.104 60.083 246.945 59.7814C246.786 59.4764 246.562 59.2362 246.274 59.0605C245.989 58.8848 245.654 58.797 245.27 58.797C244.852 58.797 244.488 58.8997 244.176 59.1052C243.868 59.3074 243.629 59.5726 243.46 59.9007C243.294 60.2255 243.212 60.5785 243.212 60.9596V61.8297C243.212 62.3401 243.301 62.7743 243.48 63.1322C243.662 63.4902 243.916 63.7636 244.241 63.9525C244.565 64.1381 244.945 64.2309 245.379 64.2309C245.661 64.2309 245.918 64.1912 246.15 64.1116C246.382 64.0288 246.582 63.9061 246.751 63.7437C246.92 63.5813 247.05 63.3808 247.139 63.1422L248.546 63.3957C248.433 63.81 248.231 64.1729 247.939 64.4845C247.651 64.7927 247.288 65.033 246.851 65.2054C246.417 65.3744 245.921 65.4589 245.364 65.4589ZM259.354 57.6684V58.8616H255.183V57.6684H259.354ZM256.302 55.8389H257.788V63.0626C257.788 63.351 257.831 63.5681 257.918 63.7139C258.004 63.8564 258.115 63.9542 258.251 64.0072C258.39 64.0569 258.541 64.0818 258.703 64.0818C258.822 64.0818 258.927 64.0735 259.016 64.0569C259.106 64.0404 259.175 64.0271 259.225 64.0172L259.494 65.2452C259.407 65.2783 259.285 65.3114 259.126 65.3446C258.967 65.381 258.768 65.4009 258.529 65.4042C258.138 65.4109 257.773 65.3413 257.435 65.1954C257.097 65.0496 256.824 64.8242 256.615 64.5193C256.406 64.2144 256.302 63.8316 256.302 63.3709V55.8389Z" fill="white"/>
</svg>
