<svg width="16" height="19" viewBox="0 0 16 19" fill="none" xmlns="http://www.w3.org/2000/svg">
<path fill-rule="evenodd" clip-rule="evenodd" d="M11.0204 1.44589C10.1053 1.05071 9.12029 0.842742 8.12349 0.834247C7.11999 0.818708 6.12382 1.00753 5.19562 1.38922C4.26741 1.77091 3.42658 2.33749 2.7243 3.05448C1.29841 4.49847 0.491346 6.44128 0.474387 8.47057C0.45743 10.4999 1.23192 12.4559 2.63347 13.9235L7.2354 18.6869C7.32802 18.7841 7.4391 18.8618 7.56214 18.9155C7.68517 18.9693 7.81769 18.9979 7.95193 18.9998C8.08598 19.0028 8.21914 18.9774 8.34265 18.9252C8.46616 18.873 8.5772 18.7952 8.66846 18.697L13.3511 14.0042C14.7784 12.5616 15.5873 10.6195 15.6061 8.5902C15.625 6.5609 14.8523 4.60414 13.452 3.13521C12.7624 2.41546 11.9356 1.84107 11.0204 1.44589ZM7.96174 11.1439C9.31078 11.1439 10.4044 10.0503 10.4044 8.70124C10.4044 7.3522 9.31078 6.25859 7.96174 6.25859C6.6127 6.25859 5.51909 7.3522 5.51909 8.70124C5.51909 10.0503 6.6127 11.1439 7.96174 11.1439Z" fill="#4C4F4D"/>
</svg>
