<svg width="20" height="16" viewBox="0 0 20 16" fill="none" xmlns="http://www.w3.org/2000/svg">
<path d="M2 2.10323H1.9V2.20323V12.9288V13.0288H2H18H18.1V12.9288V2.20323V2.10323H18H2ZM2 0.158105H18C18.5016 0.158105 18.9841 0.371743 19.3411 0.754591C19.6982 1.13768 19.9 1.65866 19.9 2.20323V12.9288C19.9 13.4734 19.6982 13.9944 19.3411 14.3775C18.9841 14.7603 18.5016 14.974 18 14.974H2C1.49844 14.974 1.01587 14.7603 0.658928 14.3775C0.30176 13.9944 0.1 13.4734 0.1 12.9288V2.20323C0.1 1.65866 0.30176 1.13767 0.658928 0.754591C1.01587 0.371743 1.49844 0.158105 2 0.158105ZM11 4.44835H16C16.2363 4.44835 16.4646 4.54899 16.634 4.73069C16.8036 4.91263 16.9 5.1608 16.9 5.42091C16.9 5.68103 16.8036 5.9292 16.634 6.11114C16.4646 6.29284 16.2363 6.39348 16 6.39348H11C10.7637 6.39348 10.5354 6.29284 10.366 6.11114C10.1964 5.9292 10.1 5.68103 10.1 5.42091C10.1 5.1608 10.1964 4.91263 10.366 4.73069C10.5354 4.54899 10.7637 4.44835 11 4.44835ZM11 7.66604H16C16.2363 7.66604 16.4646 7.76667 16.634 7.94838C16.8036 8.13032 16.9 8.37849 16.9 8.6386C16.9 8.89871 16.8036 9.14688 16.634 9.32882C16.4646 9.51052 16.2363 9.61116 16 9.61116H11C10.7637 9.61116 10.5354 9.51052 10.366 9.32882C10.1964 9.14688 10.1 8.89871 10.1 8.6386C10.1 8.37849 10.1964 8.13031 10.366 7.94838C10.5354 7.76667 10.7637 7.66604 11 7.66604Z" fill="#181725" stroke="white" stroke-width="0.2"/>
<g clip-path="url(#clip0_1_1296)">
<path d="M6.75023 5.25382V5.81653C6.75023 6.12094 6.61264 6.4069 6.37416 6.60984C6.1265 6.82201 5.80547 6.94193 5.46609 6.94193C5.12671 6.94193 4.7965 6.82201 4.55802 6.60984C4.31953 6.4069 4.18195 6.12094 4.18195 5.81653V5.25382C4.18195 4.95864 4.31953 4.67267 4.55802 4.4605C4.7965 4.24834 5.12671 4.12842 5.46609 4.12842C5.80547 4.12842 6.1265 4.24834 6.37416 4.4605C6.61264 4.67267 6.75023 4.95864 6.75023 5.25382Z" fill="#181725"/>
<path d="M7.71337 8.57461V9.03584C7.71337 9.25723 7.6033 9.47862 7.42903 9.63544C7.24558 9.79226 6.99792 9.88451 6.75026 9.88451H4.18198C3.92515 9.88451 3.67749 9.79226 3.50322 9.63544C3.31977 9.47862 3.21887 9.25723 3.21887 9.03584V8.54693C3.21887 8.2333 3.32894 7.91966 3.53074 7.66137C3.73253 7.40308 4.01687 7.20014 4.34708 7.08022C4.39295 7.07099 4.42964 7.06177 4.4755 7.06177C4.52136 7.06177 4.55805 7.07099 4.60391 7.08022H6.24578C6.26412 7.08022 6.2733 7.08022 6.28247 7.08944C6.28247 7.08022 6.29164 7.08022 6.29164 7.08022C6.4384 7.07099 6.53013 7.08022 6.5393 7.08022C6.88785 7.20014 7.18137 7.40308 7.39234 7.67059C7.59413 7.93811 7.71337 8.25175 7.71337 8.57461Z" fill="#181725"/>
</g>
<defs>
<clipPath id="clip0_1_1296">
<rect width="6" height="7.68429" fill="white" transform="translate(3 4.12842)"/>
</clipPath>
</defs>
</svg>
