<svg width="16" height="16" viewBox="0 0 16 16" fill="none" xmlns="http://www.w3.org/2000/svg">
<path d="M10.0847 4.53948L2.76727 11.8569L2.28878 13.4891L3.88779 13.0268L11.2295 5.6851L10.0847 4.53948ZM11.3331 3.29104L12.4779 4.43585L13.545 3.36876C13.6209 3.29285 13.6635 3.1899 13.6635 3.08256C13.6635 2.97522 13.6209 2.87227 13.545 2.79636L12.9718 2.22395C12.8959 2.14806 12.7929 2.10543 12.6856 2.10543C12.5782 2.10543 12.4753 2.14806 12.3994 2.22395L11.3339 3.29104H11.3331ZM14.1174 1.07915L14.6898 1.65155C15.0693 2.03112 15.2824 2.54585 15.2824 3.08256C15.2824 3.61927 15.0693 4.134 14.6898 4.51357L4.73789 14.4663L1.32128 15.454C1.18201 15.4942 1.03452 15.4962 0.894204 15.4599C0.753886 15.4236 0.625885 15.3503 0.523564 15.2477C0.421243 15.145 0.348354 15.0168 0.312507 14.8763C0.27666 14.7359 0.279169 14.5884 0.319772 14.4493L1.33018 11.0043L11.2562 1.07834C11.6357 0.698883 12.1505 0.485718 12.6872 0.485718C13.2239 0.485718 13.7386 0.698883 14.1182 1.07834L14.1174 1.07915Z" fill="#53B175"/>
</svg>
