<svg width="19" height="19" viewBox="0 0 19 19" fill="none" xmlns="http://www.w3.org/2000/svg">
<path d="M8.75954 14.0005C9.54747 14.0005 10.3277 13.8453 11.0556 13.5438C11.7836 13.2423 12.445 12.8003 13.0022 12.2431C13.5593 11.686 14.0013 11.0246 14.3028 10.2966C14.6043 9.56865 14.7595 8.78843 14.7595 8.0005C14.7595 7.21257 14.6043 6.43236 14.3028 5.7044C14.0013 4.97645 13.5593 4.31501 13.0022 3.75786C12.445 3.20071 11.7836 2.75875 11.0556 2.45723C10.3277 2.1557 9.54747 2.0005 8.75954 2.0005C7.16824 2.0005 5.64211 2.63264 4.5169 3.75786C3.39168 4.88308 2.75954 6.4092 2.75954 8.0005C2.75954 9.5918 3.39168 11.1179 4.5169 12.2431C5.64211 13.3684 7.16824 14.0005 8.75954 14.0005ZM15.0795 12.9065L18.6595 16.4865C18.755 16.5788 18.8311 16.6892 18.8834 16.8113C18.9357 16.9333 18.9632 17.0645 18.9643 17.1973C18.9653 17.3301 18.9399 17.4618 18.8896 17.5846C18.8392 17.7075 18.7649 17.8191 18.6709 17.9129C18.577 18.0067 18.4653 18.0809 18.3423 18.1311C18.2194 18.1813 18.0877 18.2065 17.9549 18.2052C17.8221 18.204 17.6909 18.1763 17.569 18.1238C17.447 18.0713 17.3367 17.9951 17.2445 17.8995L13.6645 14.3195C12.057 15.5674 10.0343 16.1557 8.00829 15.9647C5.98225 15.7737 4.10514 14.8178 2.75909 13.2916C1.41303 11.7653 0.699221 9.78345 0.762962 7.74943C0.826703 5.7154 1.66321 3.78213 3.10218 2.34315C4.54116 0.904173 6.47444 0.0676701 8.50846 0.00392902C10.5425 -0.0598121 12.5243 0.654 14.0506 2.00005C15.5768 3.34611 16.5328 5.22322 16.7237 7.24926C16.9147 9.2753 16.3264 11.298 15.0785 12.9055L15.0795 12.9065Z" fill="#181B19"/>
</svg>
